<?xml version="1.0" encoding="utf-8"?>
<!-- Generator: Adobe Illustrator 24.2.3, SVG Export Plug-In . SVG Version: 6.00 Build 0)  -->
<svg version="1.1" id="Layer_1" xmlns="http://www.w3.org/2000/svg" xmlns:xlink="http://www.w3.org/1999/xlink" x="0px" y="0px"
	 viewBox="0 0 512 512" style="enable-background:new 0 0 512 512;" xml:space="preserve">
<g id="XMLID_22_">
	<g id="XMLID_64_">
		<defs>
			<path id="XMLID_65_" d="M256,402.42c-80.84,0-146.61-65.68-146.61-146.42c0-80.73,65.77-146.42,146.61-146.42
				c80.84,0,146.61,65.68,146.61,146.42C402.61,336.73,336.84,402.42,256,402.42L256,402.42z M379.64,276.04
				c-4.28-1.35-38.76-11.62-78-5.35c16.38,44.95,23.05,81.56,24.33,89.17C354.06,340.89,374.06,310.84,379.64,276.04L379.64,276.04z
				 M304.92,371.31c-1.86-10.97-9.13-49.21-26.71-94.84c-0.28,0.09-0.55,0.18-0.83,0.28c-70.63,24.58-95.99,73.5-98.24,78.1
				c21.23,16.54,47.92,26.4,76.87,26.4C273.35,381.25,289.88,377.71,304.92,371.31L304.92,371.31z M162.96,339.81
				c2.84-4.85,37.21-61.68,101.79-82.53c1.63-0.53,3.28-1.02,4.93-1.49c-3.14-7.1-6.57-14.22-10.15-21.22
				c-62.54,18.69-123.22,17.91-128.7,17.8c-0.04,1.27-0.06,2.54-0.06,3.82C130.77,288.31,142.96,317.64,162.96,339.81L162.96,339.81
				z M133.42,230.58c5.6,0.07,57.19,0.3,115.77-15.24c-20.75-36.84-43.13-67.81-46.43-72.33
				C167.72,159.51,141.54,191.77,133.42,230.58L133.42,230.58z M226.65,134.61c3.46,4.63,26.21,35.56,46.73,73.21
				c44.53-16.67,63.38-41.97,65.63-45.18c-22.11-19.59-51.19-31.51-83.01-31.51C245.9,131.13,236.07,132.34,226.65,134.61
				L226.65,134.61z M352.94,177.1c-2.64,3.57-23.63,30.43-69.93,49.31c2.91,5.96,5.71,12.02,8.31,18.11
				c0.92,2.16,1.82,4.31,2.7,6.45c41.67-5.23,83.07,3.15,87.2,4.03C380.94,225.49,370.38,198.39,352.94,177.1L352.94,177.1z"/>
		</defs>
		<use xlink:href="#XMLID_65_"  style="overflow:visible;fill-rule:evenodd;clip-rule:evenodd;fill:#333333;"/>
		<clipPath id="XMLID_2_">
			<use xlink:href="#XMLID_65_"  style="overflow:visible;"/>
		</clipPath>
	</g>
</g>
</svg>
