<?xml version="1.0" encoding="utf-8"?>
<!-- Generator: Adobe Illustrator 24.2.3, SVG Export Plug-In . SVG Version: 6.00 Build 0)  -->
<svg version="1.1" id="Capa_1" xmlns="http://www.w3.org/2000/svg" xmlns:xlink="http://www.w3.org/1999/xlink" x="0px" y="0px"
	 viewBox="0 0 207.2 77" style="enable-background:new 0 0 207.2 77;" xml:space="preserve">
<style type="text/css">
	.st0{fill:#1D1D1B;}
	.st1{enable-background:new    ;}
</style>
<g>
	<path class="st0" d="M16.7,73.3c-0.5,0-1-0.1-1.4-0.3L4.9,67.7c-1.1-0.6-1.7-1.7-1.7-2.8V19.5c0-2.7,1.5-5.1,3.8-6.3l19-9.7
		c6.1-2.5,12.2,0.3,15.4,7c0.2,0.5,0.4,1,0.6,1.5c5-0.6,9.6,2.2,12.3,7.8c4.1,8.7,1.9,21.3-9,27.4L19.9,61.1v9.1
		c0,1.1-0.6,2.1-1.5,2.7C17.9,73.2,17.3,73.3,16.7,73.3z M7.1,64.4l8.8,4.5V48.1l-8.8,4.8V64.4z M19.9,45.9v10.6l23.4-12.7
		c9.7-5.4,10.1-16.3,7.3-22.2c-0.7-1.5-3.1-5.7-7.6-5.6c1.5,8.4-1.6,18-10.6,23.1L19.9,45.9z M27.5,7.3L8.8,16.8
		c-1,0.5-1.7,1.6-1.7,2.7v28.8l8.8-4.8V28.9c0-2.6,1.5-5,3.8-6.3l18.3-9.4c-0.1-0.3-0.3-0.6-0.4-0.9C36.8,10.5,33.6,4.9,27.5,7.3z
		 M39.2,17.2l-17.6,9c-1,0.5-1.7,1.6-1.7,2.7v12.4l10.6-5.8C38.2,31.3,40.1,23.4,39.2,17.2z"/>
	<g class="st1">
		<path class="st0" d="M75.2,49.2V15.9h7.1c3.1,0,5.4,0.5,7,1.4c1.5,0.8,2.6,2,3.4,3.6c0.8,1.5,1.2,3.2,1.2,5.1
			c0,1.9-0.4,3.6-1.3,5.1c-0.8,1.5-2,2.7-3.4,3.6c-1.6,0.9-3.9,1.4-7,1.4h-2.6v13.2H75.2z M79.7,20v12h3.1c4.6,0,6.8-2,6.8-6
			s-2.3-6-6.8-6H79.7z"/>
	</g>
	<g class="st1">
		<path class="st0" d="M117.1,27.1v22.1h-4.3v-2.4c-1.4,1.1-2.6,1.9-3.7,2.4c-1.1,0.4-2.2,0.7-3.5,0.7c-3.1,0-5.8-1.1-8-3.4
			c-2.2-2.3-3.3-5.1-3.3-8.3c0-3.2,1.1-6,3.3-8.3c2.2-2.3,4.9-3.4,8-3.4c1.3,0,2.4,0.2,3.5,0.7c1,0.4,2.3,1.2,3.7,2.4v-2.4H117.1z
			 M105.9,30.3c-2.2,0-3.9,0.7-5.3,2.2s-2,3.4-2,5.7c0,2.3,0.7,4.2,2,5.6s3.1,2.2,5.2,2.2s3.8-0.7,5.1-2.2c1.3-1.5,2-3.4,2-5.7
			c0-2.3-0.7-4.1-2-5.6C109.6,31,107.9,30.3,105.9,30.3z"/>
	</g>
	<g class="st1">
		<path class="st0" d="M122.2,49.2V27.1h4.3v2.1c1.1-0.9,1.9-1.5,2.6-1.8c0.7-0.3,1.6-0.4,2.7-0.4c0.5,0,1,0,1.4,0v3.8
			c-0.4,0-0.9,0-1.3,0c-1.2,0-2.1,0.2-2.9,0.6c-0.8,0.4-1.3,1-1.6,1.8c-0.3,0.8-0.6,1.6-0.7,2.3s-0.2,1.8-0.2,2.9v10.7H122.2z"/>
	</g>
	<g class="st1">
		<path class="st0" d="M156.4,27.1v22.1h-4.3v-2.4c-1.4,1.1-2.6,1.9-3.7,2.4c-1.1,0.4-2.2,0.7-3.5,0.7c-3.1,0-5.8-1.1-8-3.4
			c-2.2-2.3-3.3-5.1-3.3-8.3c0-3.2,1.1-6,3.3-8.3c2.2-2.3,4.9-3.4,8-3.4c1.3,0,2.4,0.2,3.5,0.7c1,0.4,2.3,1.2,3.7,2.4v-2.4H156.4z
			 M145.2,30.3c-2.2,0-3.9,0.7-5.3,2.2s-2,3.4-2,5.7c0,2.3,0.7,4.2,2,5.6s3.1,2.2,5.2,2.2s3.8-0.7,5.1-2.2c1.3-1.5,2-3.4,2-5.7
			c0-2.3-0.7-4.1-2-5.6C148.9,31,147.2,30.3,145.2,30.3z"/>
		<path class="st0" d="M166.7,15.9v33.3h-4.3V15.9H166.7z"/>
	</g>
	<g class="st1">
		<path class="st0" d="M191.1,39.9h-17.2c0.3,1.9,1.1,3.4,2.3,4.5c1.2,1.1,2.7,1.6,4.5,1.6c1.2,0,2.4-0.3,3.5-0.8s1.9-1.3,2.5-2.3
			c0.2-0.3,0.3-0.5,0.4-0.6l3.7,1.5c-2.4,4-5.7,6-10.1,6c-3.2,0-5.8-1.1-8-3.4c-2.1-2.2-3.2-5-3.2-8.4c0-3.3,1-6,3.1-8.3
			c2.1-2.3,4.7-3.4,7.7-3.4c3.1,0,5.7,1.1,7.7,3.4c2,2.3,3,5.2,3,8.7C191.2,38.8,191.1,39.2,191.1,39.9z M173.9,36.4h12.9
			c-0.3-1.9-1.1-3.4-2.2-4.5c-1.1-1.1-2.5-1.6-4.2-1.6c-1.7,0-3.1,0.5-4.3,1.6C175,33,174.3,34.5,173.9,36.4z"/>
	</g>
	<g class="st1">
		<path class="st0" d="M199.1,15.9v33.3h-4.3V15.9H199.1z"/>
	</g>
</g>
</svg>
