<?xml version="1.0" encoding="utf-8"?>
<!-- Generator: Adobe Illustrator 24.2.3, SVG Export Plug-In . SVG Version: 6.00 Build 0)  -->
<svg version="1.1" id="Layer_1" xmlns="http://www.w3.org/2000/svg" xmlns:xlink="http://www.w3.org/1999/xlink" x="0px" y="0px"
	 viewBox="0 0 459.2 172.9" style="enable-background:new 0 0 459.2 172.9;" xml:space="preserve">
<g>
	<g>
		<path d="M-59,149.4c1.9,0,1.9-3,0-3C-60.9,146.4-60.9,149.4-59,149.4L-59,149.4z"/>
	</g>
</g>
<g>
	<path d="M8,67.8c2.6-5.9,6.1-10.9,10.4-14.9c4.4-4,9.4-7.1,15.1-9.2c5.7-2.1,11.6-3.1,17.8-3.1s12.1,1,17.8,3.1
		c5.7,2.1,10.8,5.1,15.3,9.2c4.4,4,8,9,10.6,14.9c2.7,5.9,4,12.7,4,20.3v3.3c0,7.5-1.3,14.2-4,20.2c-2.7,5.9-6.2,10.9-10.6,14.9
		c-4.4,4-9.5,7.1-15.3,9.2c-5.7,2.1-11.7,3.1-17.8,3.1s-12.1-1-17.8-3.1c-5.7-2.1-10.7-5.1-15.1-9.2c-4.4-4-7.9-9-10.4-14.9
		C5.4,105.7,4.1,99,4.1,91.5v-3.3C4.1,80.5,5.4,73.7,8,67.8z M40.5,61.4c-3.1,1.5-5.6,3.7-7.7,6.5c-2,2.8-3.6,6-4.6,9.7
		c-1,3.7-1.6,7.7-1.6,12s0.5,8.3,1.6,12c1,3.7,2.6,6.9,4.6,9.7s4.6,4.9,7.7,6.5c3.1,1.5,6.7,2.3,10.9,2.3c4.2,0,7.8-0.8,10.9-2.3
		c3.1-1.5,5.7-3.7,7.8-6.5c2.1-2.8,3.7-6,4.7-9.7c1-3.7,1.6-7.7,1.6-12s-0.5-8.3-1.6-12c-1-3.7-2.6-6.9-4.7-9.7
		c-2.1-2.8-4.7-4.9-7.8-6.5c-3.1-1.5-6.7-2.3-10.9-2.3C47.2,59.1,43.6,59.9,40.5,61.4z"/>
	<path d="M119.5,69.4c2.2-5.9,5.3-10.9,9.2-15.2c3.9-4.3,8.7-7.6,14.2-10c5.5-2.4,11.7-3.6,18.5-3.6c7,0,12.6,1,16.8,2.9
		c4.2,1.9,7.6,4.3,10.4,7.3h0.4V6.4h22.4v129.4h-17.2l-3.1-10.4h-0.4c-4.1,5.2-8.8,8.7-14.1,10.5c-5.3,1.8-11,2.8-17,2.8
		c-5.4,0-10.8-1.1-16-3.2c-5.2-2.2-9.9-5.2-14-9.2c-4.1-4-7.3-8.9-9.8-14.7c-2.5-5.8-3.7-12.3-3.7-19.6v-3.5
		C116.1,81.6,117.3,75.2,119.5,69.4z M152.8,61.2c-3.2,1.6-5.9,3.8-8,6.6c-2.1,2.8-3.6,6-4.6,9.8c-1,3.8-1.5,7.8-1.5,12.1
		s0.5,8.3,1.5,12c1,3.7,2.5,6.9,4.6,9.7c2.1,2.8,4.7,5,8,6.6c3.2,1.6,7,2.4,11.3,2.4s8-0.8,11.2-2.4c3.1-1.6,5.8-3.8,7.9-6.6
		c2.1-2.8,3.7-6,4.7-9.7c1-3.7,1.6-7.7,1.6-12s-0.5-8.4-1.6-12.1c-1-3.8-2.6-7-4.7-9.8c-2.1-2.8-4.7-5-7.9-6.6
		c-3.1-1.6-6.9-2.4-11.2-2.4S156,59.6,152.8,61.2z"/>
	<path d="M258.5,26.9c-3,2.2-6.5,3.3-10.5,3.3c-4.2,0-7.7-1.1-10.6-3.3c-2.9-2.2-4.3-5.4-4.3-9.4v-0.9c0-4.2,1.4-7.4,4.3-9.6
		c2.9-2.2,6.4-3.3,10.6-3.3c4.1,0,7.6,1.1,10.5,3.3c3,2.2,4.4,5.4,4.4,9.6v0.9C263,21.6,261.5,24.7,258.5,26.9z M236.7,43.4h22.6
		v92.5h-22.6V43.4z"/>
	<path d="M283.7,55.8c2.1-3.6,4.8-6.5,8.2-8.7c3.4-2.2,7.2-3.9,11.4-4.9c4.2-1,8.4-1.6,12.6-1.6c4.8,0,9.3,0.5,13.5,1.6
		c4.2,1,7.9,2.6,11,4.7c3.1,2.1,5.7,4.8,7.7,8.1c2,3.3,3.1,7.3,3.3,12v1.8H331c-0.2-4.3-1.7-7.3-4.3-9.1s-6.3-2.6-10.8-2.6
		c-8.9,0-13.3,3.2-13.3,9.6c0,2.3,0.8,4.3,2.3,6s3.7,2.8,6.4,3.4c2.7,0.6,5.6,1.2,8.8,1.8c3.1,0.6,6.3,1.3,9.5,2.1
		c3.2,0.9,6.3,2,9.2,3.3c3,1.4,5.5,3.1,7.8,5.4c2.2,2.2,4,5,5.4,8.3c1.4,3.3,2,6.8,2,10.4v0.9c0,5.5-1.1,10.2-3.4,14.1
		c-2.3,3.8-5.2,6.9-8.7,9.3c-3.5,2.4-7.5,4.1-11.8,5.2c-4.4,1-8.7,1.6-13,1.6c-5.2,0-10-0.6-14.4-1.8c-4.4-1.2-8.3-3-11.7-5.5
		c-3.3-2.5-6-5.7-8-9.5c-2-3.8-3.1-8.4-3.3-13.7v-1.8h21.1c0,5.4,1.4,9.3,4.1,11.7c2.7,2.4,6.9,3.6,12.6,3.6c4.8,0,8.5-1,11-3.1
		c2.5-2.1,3.8-4.7,3.8-8c0-2.5-0.8-4.7-2.3-6.7c-1.5-2-4.3-3.5-8.2-4.6c-2.2-0.6-4.8-1.2-7.8-1.7c-3-0.5-6-1.1-9.2-1.8
		c-3.1-0.7-6.2-1.8-9.2-3.1c-3-1.4-5.6-3.1-7.9-5.4c-2-2-3.6-4.5-5-7.6c-1.4-3.1-2-6.3-2-9.8v-1.1C280.5,63.7,281.6,59.4,283.7,55.8
		z"/>
	<path d="M411.2,102c0.9-3.1,1.9-6,2.9-8.9l18.7-49.7h22.4v2.8l-52.5,123h-23.5v-2.8l16.1-34.9l-36.2-85.2v-2.8h23.9L402,93.1
		c1,2.7,2,5.6,3,8.8c1,3.1,2,6.2,3,9.2h0.4C409.3,108.1,410.3,105.1,411.2,102z"/>
</g>
</svg>
