<?xml version="1.0" encoding="utf-8"?>
<!-- Generator: Adobe Illustrator 24.2.3, SVG Export Plug-In . SVG Version: 6.00 Build 0)  -->
<svg version="1.1" id="Layer_1" xmlns="http://www.w3.org/2000/svg" xmlns:xlink="http://www.w3.org/1999/xlink" x="0px" y="0px"
	 viewBox="0 0 614.2 172.9" style="enable-background:new 0 0 614.2 172.9;" xml:space="preserve">
<style type="text/css">
	.st0{enable-background:new    ;}
</style>
<g class="st0">
	<path d="M12.4,43c2.6-4.5,6-8.2,10.2-11c4.2-2.9,8.9-5,14.1-6.4c5.2-1.4,10.5-2.1,15.8-2.1c5.6,0,10.9,0.6,16.1,1.8
		s9.7,3.1,13.7,5.8c4,2.7,7.3,6.1,10,10.4c2.7,4.2,4.3,9.5,4.9,15.7v1.9H74.8c-0.3-2.2-0.8-4.2-1.7-6.2s-2.2-3.7-3.9-5.2
		c-1.7-1.5-3.9-2.8-6.7-3.7c-2.7-1-6.1-1.4-10-1.4c-5.8,0-10.7,1.2-14.5,3.6s-5.8,6-5.8,10.6c0,2.4,0.4,4.4,1.2,6.1
		c0.8,1.6,1.9,3,3.1,4.2c2.5,2.3,6.2,4.1,10.9,5.5c4.8,1.4,9.8,2.8,15.1,4.2c5.3,1.4,10.6,3.1,15.9,5c5.3,2,9.7,4.8,13.2,8.5
		c2.8,2.8,5,6.1,6.6,10.1c1.6,3.9,2.4,7.9,2.4,12v2.1c0,6.8-1.3,12.7-3.9,17.5s-6,8.7-10.3,11.8c-4.2,3-9.1,5.3-14.6,6.7
		c-5.5,1.4-11.2,2.1-17,2.1c-6.3,0-12.3-0.8-17.9-2.4c-5.6-1.6-10.5-3.9-14.7-7c-4.2-3.1-7.7-7-10.3-11.7s-4.2-10.1-4.8-16.2v-1.9
		h23c0.6,6.2,3.2,11,7.6,14.4s10.3,5,17.7,5c7.2,0,12.7-1.6,16.3-4.7c3.7-3.1,5.5-7.2,5.5-12.3c0-1.8-0.3-3.6-1-5.4
		s-1.9-3.5-3.5-4.8c-2.9-2.7-6.8-4.7-11.7-6.2c-4.9-1.5-10-2.9-15.3-4.2c-5.3-1.3-10.5-2.9-15.6-4.8c-5.1-1.8-9.3-4.5-12.7-7.9
		c-2.8-2.8-5-6.1-6.6-9.9c-1.6-3.8-2.4-7.7-2.4-11.8v-1.9C8.5,52.8,9.8,47.5,12.4,43z"/>
	<path d="M167,149c-4.8,2.3-10.1,3.4-16,3.4c-4.6,0-8.9-0.7-13-2.2c-4.1-1.5-7.7-3.5-10.7-6.2c-3-2.7-5.5-5.8-7.3-9.5
		c-1.8-3.7-2.8-7.7-2.8-12.2v-1.5c0-6,1.2-10.9,3.7-14.8c2.5-3.9,5.7-7.1,9.6-9.5c3.9-2.4,8.4-4.1,13.4-5.1c5-1,10-1.5,14.9-1.5
		c2.7,0,5.6,0.2,8.7,0.6c3.2,0.4,6.2,0.9,9.1,1.5v-3.4c0-2.8-0.2-5.4-0.5-7.8c-0.3-2.4-1-4.5-2.2-6.3s-2.8-3.2-5-4.2
		c-2.2-1-5.2-1.5-9-1.5c-3.9,0-7.6,1-11,2.9s-5.3,5.5-5.5,10.6h-20.7V80c0.4-4.8,1.6-9,3.8-12.6c2.2-3.6,4.9-6.6,8.3-8.9
		c3.4-2.3,7.2-4.1,11.5-5.2s8.7-1.7,13.3-1.7c6.5,0,12.4,0.9,17.9,2.6c5.5,1.7,10.1,4.6,13.9,8.7c2.7,2.7,4.7,6.3,6.2,10.9
		s2.2,10,2.2,16.1v59.7H182l-2.9-10.3h-0.4C175.8,143.4,171.8,146.7,167,149z M163.5,132.9c2.3-0.8,4.5-1.9,6.5-3.4
		c2-1.5,3.6-3.4,4.8-5.6c1.3-2.2,1.9-4.7,1.9-7.5v-7c-2.4-0.8-5.2-1.4-8.4-1.9c-3.2-0.5-6.3-0.8-9.3-0.8c-2.3,0-4.5,0.3-6.7,0.8
		c-2.2,0.5-4.2,1.3-6,2.5s-3.2,2.6-4.3,4.3c-1.1,1.7-1.6,3.8-1.6,6.2c0,4.7,1.6,8.1,4.8,10.4s7.1,3.3,11.8,3.3
		C159,134,161.1,133.6,163.5,132.9z"/>
	<path d="M251.7,128.6c3.1,2,7,2.6,11.7,2h2.3V149c-2.2,0.5-4.1,0.9-5.8,1c-1.7,0.2-3.8,0.3-6.4,0.3c-9.5,0-16.8-2.5-22-7.6
		c-5.1-5.1-7.7-13.1-7.7-24.1V16.3H247v100.8C247,122.8,248.6,126.6,251.7,128.6z"/>
	<path d="M354.8,29.9c7.6,2.7,14.3,6.7,20,11.8c5.7,5.1,10.2,11.4,13.5,18.7c3.3,7.4,4.9,15.7,4.9,25.1v4.6c0,9.3-1.6,17.5-4.9,24.8
		c-3.3,7.3-7.8,13.5-13.4,18.6c-5.6,5.1-12.3,9.1-20,11.8c-7.7,2.7-15.9,4.1-24.6,4.1h-45.1V25.8h45.1
		C339.1,25.8,347.2,27.2,354.8,29.9z M309.2,128.7h21.1c6.7,0,12.5-1,17.4-2.9c4.9-2,8.9-4.8,12.1-8.4c3.2-3.6,5.5-7.9,7.1-12.9
		s2.4-10.6,2.4-16.6c0-6.1-0.8-11.7-2.3-16.7c-1.5-5.1-3.9-9.4-7.1-13c-3.2-3.6-7.3-6.4-12.3-8.5c-4.9-2-10.8-3-17.7-3h-20.7V128.7z
		"/>
	<path d="M475.8,54.9c5.5,2.3,10.3,5.5,14.4,9.7c4.1,4.2,7.2,9.2,9.5,15.1s3.4,12.5,3.4,19.7c0,1.1,0,2.3-0.1,3.4
		c-0.1,1.1-0.1,2.2-0.1,3c0,1.1-0.1,2.2-0.2,3.2h-68.8c1,7.2,3.5,13.1,7.6,17.7s9.8,6.8,17.1,6.8c5.3,0,9.7-0.9,13-2.8
		c3.4-1.8,6-4.8,7.9-9H502c-2.5,10.1-7.7,17.8-15.6,22.9c-7.9,5.1-17.4,7.7-28.5,7.7c-6.6,0-12.8-1.2-18.5-3.6s-10.8-5.7-15.1-10
		c-4.3-4.2-7.7-9.4-10.2-15.4c-2.5-6-3.7-12.6-3.7-19.9v-3c0-7.2,1.2-13.8,3.7-19.9c2.5-6,5.9-11.2,10.2-15.5
		c4.3-4.3,9.3-7.7,15-10.1c5.7-2.4,11.9-3.6,18.4-3.6S470.3,52.6,475.8,54.9z M473.8,76.3c-3.4-4-8.6-6-15.4-6
		c-7.1,0-12.5,1.9-16.3,5.7c-3.7,3.8-6.3,8.8-7.7,15h45.1C479.2,85.2,477.3,80.3,473.8,76.3z"/>
	<path d="M562.9,116.2c1.1-3.4,2.1-6.5,3.1-9.4l18.6-52.5h23v2.9l-38.4,92.2h-21.5l-38.2-92.2v-2.9h24.5l19.6,52.5
		c1,2.8,2.1,5.9,3.2,9.3c1.1,3.4,2.1,6.7,2.9,9.7h0.4C560.9,122.8,561.8,119.6,562.9,116.2z"/>
</g>
</svg>
